# xmcd
#
# Track frame offsets:
#	150
#	15973
#	32027
#	47019
#	60187
#	71698
#	85001
#	99713
#	113365
#	127358
#	140285
#
# Disc length: 2090 seconds
#
# Revision: 1
# Processed by: cddbd v1.5.2PL0 Copyright (c) Steve Scherf et al.
# Submitted via: audiograbber 1.83.01
#
DISCID=8608280b
DTITLE=LoCash - The Fighters
DYEAR=2016
DGENRE=Country
TTITLE0=I Love This Life
TTITLE1=Ring on Every Finger
TTITLE2=I Know Somebody
TTITLE3=Shipwrecked
TTITLE4=Moonwalkin
TTITLE5=Drunk Drunk
TTITLE6=All Day
TTITLE7=God Loves Me More
TTITLE8=Till the Wheels Fall Off
TTITLE9=Ain't Startin Tonight
TTITLE10=The Fighters
EXTD=
EXTT0=
EXTT1=
EXTT2=
EXTT3=
EXTT4=
EXTT5=
EXTT6=
EXTT7=
EXTT8=
EXTT9=
EXTT10=
PLAYORDER=
